<?xml version="1.0" standalone="no"?>
<!DOCTYPE svg PUBLIC "-//W3C//DTD SVG 1.1//EN" "http://www.w3.org/Graphics/SVG/1.1/DTD/svg11.dtd">
<svg xmlns="http://www.w3.org/2000/svg">
<defs >
<font id="Figtree" horiz-adv-x="531" ><font-face
    font-family="Figtree Light SemiBold"
    units-per-em="1000"
    panose-1="0 0 0 0 0 0 0 0 0 0"
    ascent="950"
    descent="-250"
    alphabetic="0" />
<glyph unicode=" " horiz-adv-x="241" />
<glyph unicode="!" horiz-adv-x="307" d="M99 218L92 700H215L208 218H99ZM153 -15Q124 -15 104 6T83 56Q83 85 103 105T153 126Q182 126 203 106T224 56Q224 27 203 6T153 -15Z" />
<glyph unicode="&quot;" horiz-adv-x="376" d="M71 469L60 716H167L156 469H71ZM219 469L208 716H315L304 469H219Z" />
<glyph unicode="#" horiz-adv-x="630" d="M329 0L439 700H523L413 0H329ZM10 187L21 265H583L572 187H10ZM109 0L219 700H304L194 0H109ZM45 421L58 500H620L607 421H45Z" />
<glyph unicode="$" horiz-adv-x="558" d="M287 23Q221 23 170 43T87 97T44 168L148 200Q160 167 193 143T277 118Q334 118 367 141T401 204Q401 238 373 261T297 296L220 315Q175 327 140 350T85 408T65 490Q65 578 122 627T287 677Q348 677 393 659T468 608T512
535L409 501Q396 535 363 558T282 582Q232 582 204 559T175 494Q175 459 197 440T257 411L335 392Q420 371 466 320T513 208Q513 154 487 113T410 47T287 23ZM240 -103V780H336V-103H240Z" />
<glyph unicode="%" horiz-adv-x="802" d="M93 0L590 700H706L206 0H93ZM599 -16Q552 -16 516 6T460 67T439 155Q439 205 459 243T515 303T599 325Q646 325 682 303T738 243T759 155Q759 106 739 67T682 6T599 -16ZM599 63Q632 63 653 89T674 155Q674 194 653 220T599
247Q566 247 545 221T523 155Q523 115 544 89T599 63ZM203 375Q157 375 121 397T64 458T44 546Q44 596 64 634T120 694T204 716Q251 716 287 694T343 634T363 546Q363 497 343 458T287 397T203 375ZM203 454Q237 454 258 480T279 546Q279 585 258 611T203 637Q170
637 149 611T128 546Q128 506 149 480T203 454Z" />
<glyph unicode="&amp;" horiz-adv-x="646" d="M256 -14Q195 -14 148 10T74 76T47 172Q47 212 62 245T104 307T163 357L278 436Q298 450 319 466T355 503T371 551Q371 584 348 603T288 622Q256 622 234 602T211 552Q211 525 228 504T268 454L397 299L644 0H511L313
237L181 397Q155 430 137 455T111 504T102 553Q102 599 126 635T192 693T284 714Q340 714 383 693T452 635T477 549Q477 509 456 474T397 406T306 336L234 287Q215 274 199 258T173 222T163 174Q163 134 190 109T262 83Q308 83 350 98T426 141T479 211T498 304H605Q605
212 560 140T437 27T256 -14Z" />
<glyph unicode="&apos;" horiz-adv-x="227" d="M71 469L60 716H167L156 469H71Z" />
<glyph unicode="(" horiz-adv-x="370" d="M217 -100Q171 -39 133 32T73 184T51 350Q51 437 73 516T133 667T217 800H329Q283 736 245 663T185 512T163 350Q163 268 185 189T245 38T329 -100H217Z" />
<glyph unicode=")" horiz-adv-x="370" d="M153 -100H41Q88 -35 125 37T185 189T207 350Q207 433 185 511T126 663T41 800H153Q200 739 237 668T297 517T319 350Q319 264 297 184T238 33T153 -100Z" />
<glyph unicode="*" horiz-adv-x="485" d="M316 366L220 519L270 556L386 416L316 366ZM171 363L102 414L218 553L268 517L171 363ZM233 506L57 551L84 633L252 565L233 506ZM212 535L200 716H285L273 535H212ZM252 506L233 565L402 631L428 550L252 506Z" />
<glyph unicode="+" horiz-adv-x="629" d="M268 69V527H361V69H268ZM85 251V344H544V251H85Z" />
<glyph unicode="," horiz-adv-x="245" d="M33 -115L93 112H211L121 -115H33Z" />
<glyph unicode="-" horiz-adv-x="411" d="M56 249V346H356V249H56Z" />
<glyph unicode="." horiz-adv-x="232" d="M116 -14Q87 -14 67 6T46 56Q46 85 66 106T116 127Q145 127 166 106T187 56Q187 27 166 7T116 -14Z" />
<glyph unicode="/" horiz-adv-x="415" d="M15 -84L291 747H400L126 -84H15Z" />
<glyph unicode="0" horiz-adv-x="645" d="M322 -12Q240 -12 176 34T76 162T39 350Q39 456 75 537T175 665T322 712Q405 712 469 666T569 538T606 350Q606 244 570 163T470 35T322 -12ZM323 93Q372 93 410 126T470 217T492 350Q492 425 471 483T411 575T322 608Q272
608 234 575T175 484T153 350Q153 275 174 217T234 126T323 93Z" />
<glyph unicode="1" horiz-adv-x="419" d="M203 0L204 638L215 700H316L315 0H203ZM52 495V600Q75 599 104 613T163 652T215 701L287 626Q252 589 214 558T136 510T52 495Z" />
<glyph unicode="2" horiz-adv-x="571" d="M167 37L54 89Q54 120 70 153T115 221T185 285L307 373Q330 389 349 410T381 454T393 501Q393 530 379 554T338 592T273 606Q239 606 213 593T169 557T145 509L26 531Q36 579 68 620T152 687T270 712Q344 712 398 685T482
611T512 502Q512 440 479 391T385 296L273 213Q245 193 221 168T182 110T167 37ZM54 0V89L140 103H521V0H54Z" />
<glyph unicode="3" horiz-adv-x="551" d="M276 -12Q219 -12 172 5T93 53T47 123L151 162Q159 148 173 131T210 102T269 89Q326 89 359 121T393 204Q393 240 375 266T318 306T221 320H189V402H218Q279 402 331 388T424 347T487 280T510 192Q510 129 478 83T392
13T276 -12ZM189 338V416H221Q298 416 338 442T378 515Q378 542 365 563T326 598T267 611Q245 611 224 604T185 582T155 543L54 580Q69 622 102 651T179 696T271 712Q335 712 385 688T465 622T495 524Q495 478 473 443T411 385T323 350T217 338H189Z" />
<glyph unicode="4" horiz-adv-x="628" d="M117 194L33 242L346 700L417 635L117 194ZM33 150V242L101 251H598V150H33ZM357 0V633L347 700H468V0H357Z" />
<glyph unicode="5" horiz-adv-x="578" d="M292 -12Q246 -12 199 2T111 46T50 121L153 159Q179 122 214 106T286 89Q345 89 382 124T419 219Q419 276 383 313T289 350Q255 350 226 335T180 299L75 322L114 700H501V595H128L114 696H229L181 313L110 322Q122 342
141 362T189 401T251 430T325 440Q385 440 433 412T509 336T537 224Q537 154 506 101T419 18T292 -12Z" />
<glyph unicode="6" horiz-adv-x="574" d="M298 -12Q227 -12 178 14T98 86T54 192T40 322Q40 406 57 477T110 601T197 683T320 712Q374 712 426 696T520 650L460 566Q429 588 393 599T325 610Q238 610 191 535T147 302L123 320Q146 377 196 411T315 446Q382 446
434 416T515 333T544 213Q544 148 514 97T428 17T298 -12ZM299 87Q336 87 365 104T412 150T429 218Q429 256 412 286T366 332T299 349Q261 349 232 333T185 286T168 218Q168 180 185 151T231 104T299 87Z" />
<glyph unicode="7" horiz-adv-x="548" d="M89 0L399 611H518L217 0H89ZM36 594V700H518V611L409 594H36Z" />
<glyph unicode="8" horiz-adv-x="613" d="M306 -12Q225 -12 167 12T78 80T47 182Q47 244 78 290T167 363T306 389Q387 390 445 364T534 291T566 182Q566 124 535 81T445 13T306 -12ZM306 86Q368 86 408 117T448 196Q448 247 408 279T306 311Q265 311 234 297T184
257T165 196Q165 164 183 139T233 100T306 86ZM306 337Q234 337 181 360T100 425T71 522Q71 578 99 621T181 688T306 712Q378 712 431 688T513 621T542 522Q542 467 513 426T431 361T306 337ZM306 408Q359 408 393 436T428 509Q428 557 394 587T306 617Q253 617
219 587T185 509Q185 465 219 437T306 408Z" />
<glyph unicode="9" horiz-adv-x="574" d="M276 712Q348 712 397 686T476 613T520 507T534 378Q534 294 517 223T465 99T378 17T254 -12Q200 -12 148 4T54 50L114 134Q145 112 181 101T249 90Q336 90 384 165T428 398L452 380Q428 323 378 289T259 254Q192 254
141 284T60 367T30 486Q30 552 60 603T146 683T276 712ZM275 612Q238 612 209 596T163 550T146 482Q146 444 162 414T208 367T275 350Q314 350 343 367T389 414T406 482Q406 520 390 549T344 595T275 612Z" />
<glyph unicode=":" horiz-adv-x="282" d="M141 360Q112 360 91 381T70 431Q70 460 91 480T141 501Q169 501 190 481T211 431Q211 402 190 381T141 360ZM142 -2Q113 -2 92 19T71 69Q71 98 92 118T142 139Q171 139 191 119T212 69Q212 40 192 19T142 -2Z" />
<glyph unicode=";" horiz-adv-x="287" d="M139 358Q110 358 89 379T68 429Q68 458 89 478T139 499Q168 499 188 479T209 429Q209 400 189 379T139 358ZM38 -115L97 112H215L126 -115H38Z" />
<glyph unicode="&lt;" horiz-adv-x="629" d="M491 510V407L130 251V346L491 510ZM130 344L491 191V87L130 249V344Z" />
<glyph unicode="=" horiz-adv-x="629" d="M114 351V444H514V351H114ZM114 151V244H514V151H114Z" />
<glyph unicode="&gt;" horiz-adv-x="629" d="M137 87V190L498 346V250L137 87ZM498 252L137 406V509L498 348V252Z" />
<glyph unicode="?" horiz-adv-x="509" d="M167 295L165 373L230 377Q287 379 324 409T361 496Q361 546 327 578T237 610Q198 610 169 591T129 544L26 574Q46 636 101 674T237 712Q305 712 357 685T440 609T470 496Q470 436 441 391T361 320T241 295H167ZM222 -14Q192
-14 172 6T151 56Q151 86 171 106T222 127Q251 127 271 107T292 56Q292 27 272 7T222 -14ZM168 196L165 353H278L276 196H168Z" />
<glyph unicode="@" horiz-adv-x="991" d="M515 -211Q411 -211 324 -177T173 -81T74 66T39 252Q39 354 74 438T172 585T323 681T515 715Q611 715 691 681T829 585T919 439T951 252H863Q863 335 838 404T766 524T656 602T515 630Q430 630 359 603T236 525T156 405T127
252Q127 169 155 100T236 -19T359 -98T515 -126Q552 -126 594 -116T666 -89L712 -157Q670 -181 615 -196T515 -211ZM459 15Q396 15 348 45T272 130T245 253Q245 323 272 376T347 459T459 490Q522 490 570 460T646 376T674 253Q674 184 647 130T571 46T459 15ZM490
110Q529 110 559 128T606 178T623 252Q623 295 606 326T558 376T487 395Q447 395 417 377T370 327T352 253Q352 212 370 179T419 128T490 110ZM752 -15Q714 -15 685 0T639 43T623 109L716 113Q716 88 728 76T759 64Q790 64 813 88T850 154T863 252H951Q951 174
926 114T855 20T752 -15ZM623 109L618 479H716V113L623 109Z" />
<glyph unicode="A" horiz-adv-x="699" d="M568 0L295 700H411L691 0H568ZM9 0L288 700H405L132 0H9ZM140 172V275H559V172H140Z" />
<glyph unicode="B" horiz-adv-x="612" d="M140 0V104H335Q390 104 422 131T454 204Q454 254 419 282T319 310H140V402L261 400Q356 400 426 379T534 312T572 196Q572 134 544 90T465 23T344 0H140ZM83 0V700H197V0H83ZM137 305V406H324Q374 406 402 432T431 506Q431
554 399 580T308 605H137V699L314 701Q386 701 438 679T520 613T549 504Q549 449 516 406T421 337T276 312L137 305Z" />
<glyph unicode="C" horiz-adv-x="723" d="M386 -12Q285 -12 207 34T84 162T39 350Q39 456 83 537T206 665T385 712Q453 712 513 688T619 620T691 520L585 477Q567 515 537 544T467 590T385 606Q319 606 268 573T187 483T157 350Q157 275 186 217T268 126T388 93Q432
93 470 110T539 159T588 231L694 188Q669 129 623 84T516 13T386 -12Z" />
<glyph unicode="D" horiz-adv-x="695" d="M303 0V108Q352 108 395 126T470 178T520 255T538 350Q538 401 520 445T470 522T395 573T303 592V700Q406 700 485 656T610 532T656 350Q656 248 611 169T486 45T303 0ZM158 0V108H303V0H158ZM83 0V700H199V0H83ZM158
592V700H303V592H158Z" />
<glyph unicode="E" horiz-adv-x="590" d="M83 0V700H199V0H83ZM175 0V106H517V0H175ZM175 304V408H477V304H175ZM175 594V700H514V594H175Z" />
<glyph unicode="F" horiz-adv-x="550" d="M83 0V700H199V0H83ZM179 292V398H472V292H179ZM179 594V700H518V594H179Z" />
<glyph unicode="G" horiz-adv-x="750" d="M404 -12Q298 -12 216 34T86 162T39 349Q39 456 86 537T215 665T404 712Q465 712 518 693T615 642T685 566L591 506Q572 535 542 558T477 593T404 606Q332 606 277 573T189 483T157 349Q157 275 188 217T276 126T407 93Q465
93 511 117T583 184T610 283L721 297Q721 202 681 133T569 26T404 -12ZM442 274V368H721V290L659 274H442Z" />
<glyph unicode="H" horiz-adv-x="750" d="M551 0V700H667V0H551ZM83 0V700H199V0H83ZM174 306V412H598V306H174Z" />
<glyph unicode="I" horiz-adv-x="282" d="M83 0V700H199V0H83Z" />
<glyph unicode="J" horiz-adv-x="537" d="M218 -13Q172 -13 137 1T75 38T33 88T8 141L103 182Q121 141 149 117T219 93Q252 93 281 108T330 158T349 248V700H465V211Q465 157 446 116T392 45T313 2T218 -13Z" />
<glyph unicode="K" horiz-adv-x="644" d="M155 202L132 336L476 700H625L155 202ZM83 0V700H197V0H83ZM494 0L212 356L294 427L637 0H494Z" />
<glyph unicode="L" horiz-adv-x="530" d="M83 0V700H199V0H83ZM164 0V106H516V0H164Z" />
<glyph unicode="M" horiz-adv-x="853" d="M426 180L92 670L144 689L207 700L485 290L426 180ZM83 0V700H199V0H83ZM426 180L369 290L645 700L709 689L760 672L426 180ZM654 0V700H770V0H654Z" />
<glyph unicode="N" horiz-adv-x="774" d="M575 0L110 636L203 700L667 66L575 0ZM83 0V700H203L199 600V0H83ZM575 0V700H691V0H575Z" />
<glyph unicode="O" horiz-adv-x="783" d="M394 -12Q290 -12 210 34T85 162T39 350Q39 456 84 537T209 665T391 712Q495 712 574 666T698 538T743 350Q743 244 699 162T576 34T394 -12ZM394 94Q462 94 514 127T595 217T625 350Q625 424 595 482T513 572T391 605Q323
605 271 573T188 483T157 350Q157 275 187 218T271 127T394 94Z" />
<glyph unicode="P" horiz-adv-x="594" d="M188 242V349H343Q393 349 425 383T457 471Q457 508 441 535T395 579T328 594H188V700L330 701Q402 701 457 672T543 591T574 471Q574 405 545 353T465 272T345 242H188ZM83 0V700H199V0H83Z" />
<glyph unicode="Q" horiz-adv-x="785" d="M394 -12Q290 -12 210 34T85 162T39 350Q39 430 65 496T138 610T249 685T391 712Q495 712 574 666T698 538T743 350Q743 244 699 162T576 34T394 -12ZM666 -41L411 217L486 289L739 32L666 -41ZM394 94Q462 94 514 127T595
217T625 350Q625 425 595 482T513 573T391 606Q323 606 271 573T188 483T157 350Q157 275 187 218T271 127T394 94Z" />
<glyph unicode="R" horiz-adv-x="637" d="M188 258V365H335Q369 365 395 380T438 421T455 480Q455 530 419 562T326 594H188V700L330 701Q402 702 457 674T543 595T574 480Q574 415 542 365T452 287T323 258H188ZM83 0V700H199V0H83ZM471 0L307 284L397 346L602 0H471Z" />
<glyph unicode="S" horiz-adv-x="610" d="M313 -12Q258 -12 213 1T133 37T76 88T44 148L158 183Q171 146 209 118T303 89Q368 89 406 116T444 187Q444 227 412 252T326 292L240 314Q191 327 152 352T90 415T67 505Q67 603 131 657T314 712Q381 712 431 692T515
636T564 555L452 519Q437 559 400 585T308 611Q251 611 219 584T186 509Q186 470 211 449T281 416L367 395Q461 372 513 316T565 192Q565 132 536 86T451 14T313 -12Z" />
<glyph unicode="T" horiz-adv-x="572" d="M228 0V642H344V0H228ZM13 594V700H559V594H13Z" />
<glyph unicode="U" horiz-adv-x="705" d="M350 -14Q267 -14 205 19T108 114T73 256H189Q189 207 209 171T267 114T352 93Q401 93 438 113T496 170T516 256H632Q632 175 598 114T500 20T350 -14ZM73 256V700H189V256H73ZM516 256V700H632V256H516Z" />
<glyph unicode="V" horiz-adv-x="711" d="M304 0L578 700H702L419 0H304ZM292 0L9 700H132L406 0H292Z" />
<glyph unicode="W" horiz-adv-x="975" d="M642 0L848 700H966L754 0H642ZM218 0L9 700H126L331 0H218ZM233 0L430 700H537L341 0H233ZM631 0L438 700H545L744 0H631Z" />
<glyph unicode="X" horiz-adv-x="653" d="M10 0L281 384L502 700H640L375 334L150 0H10ZM503 0L279 334L13 700H152L373 384L643 0H503Z" />
<glyph unicode="Y" horiz-adv-x="630" d="M370 290L263 324L489 700H622L370 290ZM257 0V336H373V0H257ZM260 290L8 700H141L367 324L260 290Z" />
<glyph unicode="Z" horiz-adv-x="635" d="M176 89L41 108L460 610L594 592L176 89ZM41 0V108H591V0H41ZM44 592V700H594V592H44Z" />
<glyph unicode="[" horiz-adv-x="336" d="M83 -100V800H273V698H184V2H273V-100H83Z" />
<glyph unicode="\" horiz-adv-x="415" d="M400 -84H289L15 747H124L400 -84Z" />
<glyph unicode="]" horiz-adv-x="336" d="M253 -100H63V2H152V698H63V800H253V-100Z" />
<glyph unicode="^" horiz-adv-x="569" d="M393 373L231 700H336L493 373H393ZM76 373L231 700H335L177 373H76Z" />
<glyph unicode="_" horiz-adv-x="436" d="M18 -97V0H418V-97H18Z" />
<glyph unicode="`" horiz-adv-x="247" d="M386 565L256 701H386L503 565H386Z" />
<glyph unicode="a" horiz-adv-x="524" d="M365 0L360 94V257Q360 308 349 342T315 394T253 412Q218 412 191 397T146 351L44 387Q61 420 88 449T156 495T255 512Q328 512 376 485T449 405T473 274L470 0H365ZM223 -12Q133 -12 84 28T34 141Q34 219 86 260T233
301H367V215H269Q202 215 175 197T148 144Q148 115 171 99T237 82Q274 82 301 99T344 145T360 207H401Q401 105 358 47T223 -12Z" />
<glyph unicode="b" horiz-adv-x="592" d="M62 0V700H174V93L168 0H62ZM332 -12Q269 -12 224 20T154 112T130 250Q130 330 154 388T223 479T332 512Q400 512 450 480T529 389T558 250Q558 171 530 112T451 21T332 -12ZM304 90Q344 90 375 110T424 167T443 250Q443
297 426 333T377 389T305 409Q267 409 237 389T191 333T174 250Q174 203 190 167T236 111T304 90Z" />
<glyph unicode="c" horiz-adv-x="544" d="M296 -12Q219 -12 160 21T68 114T34 250Q34 327 67 386T159 478T294 512Q368 512 428 477T517 375L413 335Q397 368 364 388T289 408Q248 408 216 388T166 332T148 250Q148 204 166 169T217 113T291 92Q333 92 366 113T415
172L519 132Q490 64 431 26T296 -12Z" />
<glyph unicode="d" horiz-adv-x="591" d="M423 0L418 93V700H529V0H423ZM260 -12Q192 -12 142 20T63 112T34 250Q34 330 62 388T141 479T260 512Q323 512 368 480T438 389T462 250Q462 171 438 112T369 21T260 -12ZM288 90Q326 90 355 110T401 167T418 250Q418
297 402 333T356 389T287 409Q247 409 216 389T168 333T149 250Q150 203 167 167T216 111T288 90Z" />
<glyph unicode="e" horiz-adv-x="551" d="M285 -12Q212 -12 156 21T67 114T34 250Q34 327 67 386T157 478T289 512Q356 512 409 478T495 378T527 223H414Q414 288 399 330T355 392T285 413Q242 413 211 394T164 339T148 247Q148 198 167 163T220 110T295 91Q340
91 369 111T414 164L517 120Q496 80 464 50T387 4T285 -12ZM108 223V312H468V223H108Z" />
<glyph unicode="f" horiz-adv-x="384" d="M112 0V553Q112 632 151 674T271 717Q297 717 326 709T383 686L342 603Q323 612 309 616T283 620Q253 620 239 601T224 537V0H112ZM26 408V500H355V408H26Z" />
<glyph unicode="g" horiz-adv-x="596" d="M277 -213Q224 -213 182 -204T110 -183T65 -160L108 -70Q122 -77 145 -87T201 -106T273 -114Q316 -114 350 -97T403 -43T422 49V500H534V52Q534 -33 502 -92T412 -182T277 -213ZM260 10Q192 10 142 41T63 127T34 256Q34
334 62 391T141 480T260 512Q321 512 366 480T437 391T462 255Q462 181 437 126T367 41T260 10ZM291 105Q329 105 357 125T402 179T418 259Q418 305 402 339T357 393T290 413Q250 413 220 394T172 340T154 259Q154 214 171 180T220 125T291 105Z" />
<glyph unicode="h" horiz-adv-x="565" d="M63 0L62 709H174L175 0H63ZM402 0V256L514 286V0H402ZM402 256Q402 316 388 348T350 394T293 407Q236 408 206 370T175 261H132Q132 340 155 396T222 482T324 512Q414 512 464 457T514 286L402 256Z" />
<glyph unicode="i" horiz-adv-x="250" d="M69 0L70 500H181L180 0H69ZM125 595Q98 595 79 614T59 661Q59 688 78 707T125 726Q152 726 171 707T191 661Q191 634 172 615T125 595Z" />
<glyph unicode="j" horiz-adv-x="282" d="M156 593Q128 593 109 613T89 660Q89 688 108 707T156 727Q183 727 203 708T223 660Q223 633 203 613T156 593ZM45 -215Q-4 -215 -59 -186L-14 -93Q4 -102 19 -106T44 -111Q100 -111 100 -39V500H211V-45Q211 -127 169
-171T45 -215Z" />
<glyph unicode="k" horiz-adv-x="517" d="M169 140L101 217L361 500H496L169 140ZM62 0V700H174V0H62ZM380 0L204 259L277 337L513 0H380Z" />
<glyph unicode="l" horiz-adv-x="236" d="M62 0V700H174V0H62Z" />
<glyph unicode="m" horiz-adv-x="904" d="M62 0V500H167L174 408V0H62ZM401 0V256L513 286V0H401ZM741 0V256L852 286V0H741ZM401 256Q401 316 388 348T350 394T292 407Q236 408 205 370T174 261H132Q132 340 155 396T221 482T323 512Q414 512 463 457T513 286L401
256ZM741 256Q741 316 727 348T689 394T632 407Q575 408 544 370T513 261H471Q471 340 494 396T560 482T662 512Q753 512 803 457T852 286L741 256Z" />
<glyph unicode="n" horiz-adv-x="564" d="M62 0V500H167L174 408V0H62ZM401 0V256L513 286V0H401ZM401 256Q401 316 388 348T350 394T292 407Q236 408 205 370T174 261H132Q132 340 155 396T221 482T323 512Q414 512 463 457T513 286L401 256Z" />
<glyph unicode="o" horiz-adv-x="581" d="M292 -12Q217 -12 159 21T67 114T34 250Q34 327 66 386T157 478T290 512Q365 512 423 479T513 386T546 250Q546 173 514 114T424 22T292 -12ZM292 91Q333 91 365 111T415 167T433 250Q433 297 415 332T364 388T290 409Q248
409 216 389T166 333T148 250Q148 203 166 168T217 112T292 91Z" />
<glyph unicode="p" horiz-adv-x="597" d="M67 -200V500H172L179 408V-200H67ZM337 -12Q274 -12 229 20T159 112T135 250Q135 330 159 388T228 479T337 512Q405 512 455 480T534 389T563 250Q563 171 535 112T456 21T337 -12ZM309 90Q349 90 380 110T429 167T448
250Q448 297 431 333T382 389T310 409Q272 409 242 389T196 333T179 250Q179 203 195 167T241 111T309 90Z" />
<glyph unicode="q" horiz-adv-x="586" d="M418 -200V407L424 500H530V-200H418ZM260 -12Q192 -12 142 20T63 112T34 250Q34 330 62 388T141 479T260 512Q323 512 368 480T438 389T462 250Q462 171 438 112T369 21T260 -12ZM288 90Q326 90 355 110T401 167T418
250Q418 297 402 333T356 389T287 409Q247 409 216 389T168 333T149 250Q150 203 167 167T216 111T288 90Z" />
<glyph unicode="r" horiz-adv-x="363" d="M136 266Q136 347 167 399T247 476T351 502V395Q305 395 265 383T199 342T174 268L136 266ZM62 0V500H174V0H62Z" />
<glyph unicode="s" horiz-adv-x="466" d="M244 -12Q194 -12 152 3T80 45T34 110L131 153Q146 125 175 106T241 87Q280 87 303 100T327 138Q327 161 309 173T258 194L211 207Q140 225 100 264T60 355Q60 430 108 471T248 512Q294 512 332 499T399 461T438 403L345
361Q335 386 307 399T245 413Q211 413 192 399T173 358Q173 343 190 331T239 310L298 296Q347 284 378 259T424 202T439 138Q439 93 414 59T344 7T244 -12Z" />
<glyph unicode="t" horiz-adv-x="393" d="M261 -12Q182 -12 141 27T99 141V656H210V162Q210 127 226 109T275 91Q285 91 297 95T324 110L365 25Q339 7 313 -2T261 -12ZM16 404V500H345V404H16Z" />
<glyph unicode="u" horiz-adv-x="564" d="M397 0L391 92V500H502V0H397ZM51 214V500H163V244L51 214ZM163 244Q163 185 177 152T215 106T272 93Q329 92 360 130T391 239H433Q433 160 410 104T344 18T242 -12Q151 -12 101 44T51 214L163 244Z" />
<glyph unicode="v" horiz-adv-x="542" d="M223 0L418 500H534L328 0H223ZM215 0L8 500H123L319 0H215Z" />
<glyph unicode="w" horiz-adv-x="815" d="M525 0L692 500H805L635 0H525ZM190 0L353 500H452L291 0H190ZM180 0L10 500H123L286 0H180ZM524 0L364 500H463L626 0H524Z" />
<glyph unicode="x" horiz-adv-x="512" d="M10 0L215 286L358 500H490L295 224L144 0H10ZM369 0L221 224L23 500H155L299 286L502 0H369Z" />
<glyph unicode="y" horiz-adv-x="556" d="M141 -212Q117 -212 88 -203T31 -180L73 -89Q92 -98 108 -103T134 -109Q158 -109 174 -97T201 -60L260 78L429 500H551L319 -53Q298 -101 277 -137T223 -192T141 -212ZM230 0L6 500H128L302 79L338 0H230Z" />
<glyph unicode="z" horiz-adv-x="483" d="M113 17L37 83L371 486L444 418L113 17ZM37 0V83L106 93H446V0H37ZM37 406V500H444V418L374 406H37Z" />
<glyph unicode="{" horiz-adv-x="391" d="M56 339V392Q94 392 114 402T143 438T151 512Q151 598 159 654T188 742T243 787T335 800V708Q302 707 284 691T259 632T252 513Q252 444 236 406T178 354T56 339ZM335 -100Q280 -100 244 -87T188 -42T160 46T151 188Q151
236 143 262T115 298T56 308V361Q135 361 177 347T236 295T253 187Q253 111 260 69T284 10T335 -8V-100Z" />
<glyph unicode="|" horiz-adv-x="257" d="M83 -220V790H174V-220H83Z" />
<glyph unicode="}" horiz-adv-x="391" d="M335 339Q257 339 214 353T155 406T138 513Q138 590 132 632T107 690T56 708V800Q111 800 146 787T202 742T231 654T239 512Q239 464 247 438T276 402T335 392V339ZM56 -100V-8Q89 -7 106 9T131 68T138 187Q138 257 154
294T213 346T335 361V308Q297 308 276 298T247 262T239 188Q239 102 231 46T203 -42T147 -87T56 -100Z" />
<glyph unicode="~" horiz-adv-x="628" d="M419 197Q386 197 360 208T315 236T281 273Q262 297 246 312T210 328Q182 328 167 309T147 256H56Q57 307 77 347T131 412T208 436Q256 436 292 418T352 359Q364 342 381 324T419 305Q445 305 460 324T481 377H572Q570
326 550 286T497 221T419 197Z" />
<glyph unicode="&#xa0;" horiz-adv-x="241" />
<glyph unicode="&#xa1;" horiz-adv-x="298" d="M208 279L215 -203H92L99 279H208ZM153 512Q182 512 203 491T224 441Q224 413 203 392T153 371Q124 371 104 392T83 441Q83 470 103 491T153 512Z" />
<glyph unicode="&#xa2;" horiz-adv-x="539" d="M255 0L256 700H324L322 0H255ZM296 98Q219 98 160 131T68 224T34 360Q34 437 67 496T159 588T294 622Q368 622 428 587T517 485L413 445Q397 478 364 498T289 518Q248 518 216 498T166 442T148 360Q148 314 166
279T217 223T291 202Q333 202 366 223T415 282L519 242Q490 174 431 136T296 98Z" />
<glyph unicode="&#xa3;" horiz-adv-x="588" d="M119 167V501Q119 568 146 615T222 687T335 712Q397 712 444 688T519 618T547 503L433 514Q433 560 405 587T334 614Q289 614 261 583T233 501V180L119 167ZM71 38L68 106Q89 106 104 124T119 167L233 180Q233 139
211 107T152 56T71 38ZM46 0V106H547V0H46ZM46 283V377H435V283H46Z" />
<glyph unicode="&#xa4;" horiz-adv-x="581" d="M293 164Q239 164 196 189T128 256T103 350Q103 401 128 442T196 508T292 533Q347 533 389 509T457 443T482 350Q482 298 458 256T390 189T293 164ZM136 131L72 195L174 298L241 236L136 131ZM293 259Q332 259 355
284T379 350Q379 390 355 414T292 438Q254 438 230 414T206 350Q206 309 230 284T293 259ZM180 399L71 505L135 570L245 462L180 399ZM445 131L348 229L413 292L510 195L445 131ZM406 406L339 469L445 570L510 505L406 406Z" />
<glyph unicode="&#xa5;" horiz-adv-x="575" d="M343 292L240 324L437 707H567L343 292ZM230 0V336H346V0H230ZM88 181V250H486V181H88ZM88 291V360H486V291H88ZM232 292L8 707H139L335 324L232 292Z" />
<glyph unicode="&#xa6;" horiz-adv-x="291" d="M100 350V790H191V350H100ZM100 -220V220H191V-220H100Z" />
<glyph unicode="&#xa7;" horiz-adv-x="542" d="M277 -90Q221 -90 177 -73T106 -28T70 33L159 62Q170 32 199 12T270 -10Q318 -10 346 10T375 64Q375 93 351 112T287 142L220 159Q162 174 124 211T86 307Q86 382 136 424T277 466Q328 466 365 450T426 407T463 344L381
317Q370 347 339 366T269 386Q228 386 205 366T181 310Q181 281 200 265T252 240L320 223Q392 205 431 162T470 67Q470 -2 421 -46T277 -90ZM276 155Q226 155 187 173T123 221T91 283L158 307Q165 289 183 273T226 248T275 238Q320 238 347 257T374 309Q374 339
350 358T285 387L218 405Q161 420 123 456T85 553Q85 628 135 670T276 712Q328 712 366 697T430 654T469 592L380 563Q369 593 342 612T272 631Q228 631 204 611T179 555Q179 527 199 511T251 486L319 469Q391 452 430 409T469 312Q469 243 420 199T276 155Z" />
<glyph unicode="&#xa8;" horiz-adv-x="467" d="M360 604Q336 604 318 622T300 664Q300 689 318 707T360 725Q385 725 403 707T421 664Q421 640 403 622T360 604ZM106 604Q82 604 64 622T46 664Q46 690 64 707T106 725Q131 725 149 708T167 664Q167 640 149 622T106 604Z" />
<glyph unicode="&#xa9;" horiz-adv-x="802" d="M401 -11Q325 -11 259 16T144 93T67 207T39 350Q39 427 66 493T143 608T259 684T401 712Q478 712 543 685T658 608T735 493T762 350Q762 273 735 208T659 93T544 17T401 -11ZM401 152Q345 152 303 176T238 245T215
350Q215 410 238 454T302 523T400 548Q448 548 491 523T557 454L570 428L496 400L484 420Q471 441 448 454T400 468Q354 468 326 436T298 350Q298 298 326 265T401 232Q426 232 449 248T488 289L496 305L573 278L561 255Q538 208 494 180T401 152ZM401 68Q482 68
544 104T642 204T678 350Q678 433 642 497T544 597T401 633Q321 633 259 597T160 497T124 350Q124 268 160 204T258 104T401 68Z" />
<glyph unicode="&#xaa;" horiz-adv-x="335" d="M219 400L216 551Q215 578 211 597T194 626T155 637Q136 637 124 630T101 607L25 632Q46 668 78 687T156 707Q225 707 262 670T299 566V400H219ZM135 393Q82 393 53 417T24 485Q24 530 53 553T135 577H230V524H165Q109
524 109 486Q109 472 120 464T152 455Q180 455 197 473T214 521L245 528Q245 465 216 429T135 393Z" />
<glyph unicode="&#xab;" horiz-adv-x="600" d="M266 298L416 500H546L399 298H266ZM416 96L266 298H399L546 96H416ZM48 298L198 500H328L181 298H48ZM198 96L48 298H181L328 96H198Z" />
<glyph unicode="&#xac;" horiz-adv-x="494" d="M57 284V379H421V284H57ZM327 173V379H421V173H327Z" />
<glyph unicode="&#xad;" horiz-adv-x="411" d="M56 249V346H356V249H56Z" />
<glyph unicode="&#xae;" horiz-adv-x="618" d="M309 162Q252 162 202 183T115 242T56 330T34 437Q34 494 55 544T114 631T202 690T309 712Q366 712 416 691T503 632T562 544T584 437Q584 380 563 330T504 243T416 184T309 162ZM309 225Q372 225 419 251T493 326T520
437Q520 501 493 548T419 623T309 650Q247 650 200 623T126 549T99 437Q99 375 125 327T199 252T309 225ZM205 297V589H315Q362 589 391 563T421 494Q421 466 406 444T366 409L433 297H365L307 398H265V297H205ZM265 454H315Q334 454 346 465T359 494Q359 512 346
523T313 534H265V454Z" />
<glyph unicode="&#xaf;" horiz-adv-x="300" d="M-9 567V664H309V567H-9Z" />
<glyph unicode="&#xb0;" horiz-adv-x="374" d="M187 430Q147 430 114 449T61 502T41 575Q41 614 61 646T114 696T187 715Q226 715 259 697T313 646T333 575Q333 535 313 502T260 450T187 430ZM187 508Q212 508 229 528T247 575Q247 601 230 619T187 637Q163 637
145 619T127 575Q127 548 145 528T187 508Z" />
<glyph unicode="&#xb1;" horiz-adv-x="629" d="M85 320V408H544V320H85ZM85 13V94H544V13H85ZM268 156V573H361V156H268Z" />
<glyph unicode="&#xb2;" horiz-adv-x="365" d="M121 432L34 444Q34 462 45 482T77 525T123 565L182 606Q200 619 217 637T234 675Q234 697 218 711T172 726Q147 726 131 712T109 677L18 692Q24 723 44 749T97 791T171 807Q242 807 283 771T324 676Q324 635 302
606T242 549L185 508Q171 498 157 484T133 457T121 432ZM34 380V444L100 458H329V380H34Z" />
<glyph unicode="&#xb3;" horiz-adv-x="354" d="M182 373Q124 373 84 399T33 470L116 492Q123 477 136 463T176 449Q204 449 220 464T236 505Q236 520 229 533T203 553T153 561H125V619H150Q197 619 237 604T301 561T325 494Q325 455 305 429T253 388T182 373ZM125
578V633H153Q192 633 210 646T229 683Q229 703 215 717T176 731Q158 731 142 722T118 689L36 710Q44 742 65 763T116 796T178 807Q218 807 249 793T299 752T318 692Q318 654 294 629T231 591T150 578H125Z" />
<glyph unicode="&#xb4;" horiz-adv-x="247" d="M1 565L117 700H247L118 565H1Z" />
<glyph unicode="&#xb5;" horiz-adv-x="564" d="M268 -12Q196 -12 153 44T111 214L163 244Q163 185 177 152T215 106T272 93Q329 92 360 130T391 239H433Q433 120 391 54T268 -12ZM51 -200V500H163V85L154 84V-200H51ZM397 0L391 92V500H502V0H397Z" />
<glyph unicode="&#xb6;" horiz-adv-x="570" d="M248 242Q181 242 130 271T49 353T19 471Q19 539 48 590T129 671T248 700H299V242H248ZM265 -84V700H352V-84H265ZM400 -84V700H487V-84H400ZM348 594V700H411V594H348Z" />
<glyph unicode="&#xb7;" horiz-adv-x="258" d="M129 263Q100 263 80 283T59 333Q59 362 79 383T129 404Q158 404 179 383T200 333Q200 304 179 284T129 263Z" />
<glyph unicode="&#xb8;" horiz-adv-x="227" d="M105 -210Q84 -210 61 -204T10 -182L29 -125Q45 -132 60 -138T88 -144Q106 -144 119 -138T132 -113Q132 -91 115 -81T63 -66L92 6L160 -2L147 -30Q183 -43 199 -65T216 -115Q216 -157 189 -183T105 -210Z" />
<glyph unicode="&#xb9;" horiz-adv-x="281" d="M124 380V753L133 800H209L208 380H124ZM36 662V742Q58 741 84 758T133 800L189 746Q151 704 114 682T36 662Z" />
<glyph unicode="&#xba;" horiz-adv-x="363" d="M183 393Q136 393 100 413T44 468T24 550Q24 596 44 631T100 687T181 707Q251 707 295 663T339 550Q339 504 319 469T264 413T183 393ZM183 472Q213 472 232 494T252 550Q252 584 232 606T181 628Q151 628 132 606T112
550Q112 516 132 494T183 472Z" />
<glyph unicode="&#xbb;" horiz-adv-x="600" d="M334 298H200L54 500H183L334 298ZM183 96H54L200 298H334L183 96ZM552 298H419L272 500H402L552 298ZM402 96H272L419 298H552L402 96Z" />
<glyph unicode="&#xbc;" horiz-adv-x="834" d="M124 280V653L133 700H209L208 280H124ZM36 562V642Q58 641 84 658T133 700L189 646Q151 604 114 582T36 562ZM105 0L586 700H678L197 0H105ZM527 116L463 150L648 420L700 371L527 116ZM463 78V150L512 154H813V78H463ZM658
0V372L648 420H742V0H658Z" />
<glyph unicode="&#xbd;" horiz-adv-x="866" d="M124 280V653L133 700H209L208 280H124ZM36 562V642Q58 641 84 658T133 700L189 646Q151 604 114 582T36 562ZM105 0L586 700H678L197 0H105ZM622 52L535 64Q535 82 546 102T578 145T624 185L683 226Q701 239 718
257T735 295Q735 317 719 331T673 346Q648 346 632 332T610 297L519 312Q525 343 545 369T598 411T672 427Q743 427 784 391T825 296Q825 255 803 226T743 169L686 128Q672 118 658 104T634 77T622 52ZM535 0V64L601 78H830V0H535Z" />
<glyph unicode="&#xbe;" horiz-adv-x="908" d="M182 273Q124 273 84 299T33 370L116 392Q123 377 136 363T176 349Q204 349 220 364T236 405Q236 420 229 433T203 453T153 461H125V519H150Q197 519 237 504T301 461T325 394Q325 355 305 329T253 288T182 273ZM125
478V533H153Q192 533 210 546T229 583Q229 603 215 617T176 631Q158 631 142 622T118 589L36 610Q44 642 65 663T116 696T178 707Q218 707 249 693T299 652T318 592Q318 554 294 529T231 491T150 478H125ZM178 0L659 700H751L270 0H178ZM601 116L537 150L722 420L774
371L601 116ZM537 78V150L586 154H887V78H537ZM732 0V372L722 420H816V0H732Z" />
<glyph unicode="&#xbf;" horiz-adv-x="467" d="M315 203L317 125L252 122Q194 120 158 89T121 2Q121 -48 155 -80T244 -112Q284 -112 313 -93T352 -46L455 -76Q436 -138 380 -176T244 -214Q176 -214 124 -186T41 -110T11 2Q11 63 40 108T121 178T240 203H315ZM259
513Q289 513 309 493T330 442Q330 413 310 393T259 372Q230 372 210 392T189 442Q189 472 209 492T259 513ZM314 302L316 145H203L205 302H314Z" />
<glyph unicode="&#xc0;" horiz-adv-x="699" d="M568 0L295 700H411L691 0H568ZM9 0L288 700H405L132 0H9ZM140 172V275H559V172H140ZM340 748L210 884H340L457 748H340Z" />
<glyph unicode="&#xc1;" horiz-adv-x="699" d="M568 0L295 700H411L691 0H568ZM9 0L288 700H405L132 0H9ZM140 172V275H559V172H140ZM272 745L387 873H517L388 745H272Z" />
<glyph unicode="&#xc2;" horiz-adv-x="699" d="M568 0L295 700H411L691 0H568ZM9 0L288 700H405L132 0H9ZM140 172V275H559V172H140ZM423 760L287 889V895H408L531 760H423ZM163 760L286 895H407V889L271 760H163Z" />
<glyph unicode="&#xc3;" horiz-adv-x="699" d="M568 0L295 700H411L691 0H568ZM9 0L288 700H405L132 0H9ZM140 172V275H559V172H140ZM431 739Q400 739 381 750T351 775T330 800T305 811Q292 811 284 803T269 773H190Q194 808 208 834T246 874T303 888Q335 888
353 877T384 852T406 827T431 816Q447 816 454 826T464 855H543Q537 805 510 772T431 739Z" />
<glyph unicode="&#xc4;" horiz-adv-x="699" d="M568 0L295 700H411L691 0H568ZM9 0L288 700H405L132 0H9ZM140 172V275H559V172H140ZM477 787Q453 787 435 805T417 847Q417 872 435 890T477 908Q502 908 520 890T538 847Q538 823 520 805T477 787ZM223 787Q199
787 181 805T163 847Q163 873 181 890T223 908Q248 908 266 891T284 847Q284 823 266 805T223 787Z" />
<glyph unicode="&#xc5;" horiz-adv-x="699" d="M568 0L295 700H411L691 0H568ZM9 0L288 700H405L132 0H9ZM140 172V275H559V172H140ZM350 728Q321 728 296 742T256 779T241 832Q241 862 256 885T295 923T350 937Q380 937 404 923T444 886T459 832Q459 803 444
780T405 742T350 728ZM350 796Q385 796 385 832Q385 869 350 869Q314 869 314 832Q314 796 350 796Z" />
<glyph unicode="&#xc6;" horiz-adv-x="1011" d="M9 0L417 700H539L140 0H9ZM194 172V275H554V172H194ZM597 0V106H939V0H597ZM504 0V700H622V0H504ZM597 304V408H899V304H597ZM423 594V700H936V594H423Z" />
<glyph unicode="&#xc7;" horiz-adv-x="723" d="M386 -12Q285 -12 207 34T84 162T39 350Q39 456 83 537T206 665T385 712Q453 712 513 688T619 620T691 520L585 477Q567 515 537 544T467 590T385 606Q319 606 268 573T187 483T157 350Q157 275 186 217T268 126T388
93Q432 93 470 110T539 159T588 231L694 188Q669 129 623 84T516 13T386 -12ZM348 -210Q327 -210 304 -204T253 -182L272 -125Q288 -132 303 -138T331 -144Q349 -144 362 -138T375 -113Q375 -91 358 -81T306 -66L335 6L403 -2L390 -30Q426 -43 442 -65T459 -115Q459
-157 432 -183T348 -210Z" />
<glyph unicode="&#xc8;" horiz-adv-x="590" d="M83 0V700H199V0H83ZM175 0V106H517V0H175ZM175 304V408H477V304H175ZM175 594V700H514V594H175ZM289 748L159 884H289L406 748H289Z" />
<glyph unicode="&#xc9;" horiz-adv-x="590" d="M83 0V700H199V0H83ZM175 0V106H517V0H175ZM175 304V408H477V304H175ZM175 594V700H514V594H175ZM221 745L337 873H467L338 745H221Z" />
<glyph unicode="&#xca;" horiz-adv-x="590" d="M83 0V700H199V0H83ZM175 0V106H517V0H175ZM175 304V408H477V304H175ZM175 594V700H514V594H175ZM372 760L236 889V895H357L480 760H372ZM112 760L235 895H356V889L220 760H112Z" />
<glyph unicode="&#xcb;" horiz-adv-x="590" d="M83 0V700H199V0H83ZM175 0V106H517V0H175ZM175 304V408H477V304H175ZM175 594V700H514V594H175ZM426 787Q402 787 384 805T366 847Q366 872 384 890T426 908Q451 908 469 890T487 847Q487 823 469 805T426 787ZM172
787Q148 787 130 805T112 847Q112 873 130 890T172 908Q197 908 215 891T233 847Q233 823 215 805T172 787Z" />
<glyph unicode="&#xcc;" horiz-adv-x="282" d="M83 0V700H199V0H83ZM132 748L2 884H132L249 748H132Z" />
<glyph unicode="&#xcd;" horiz-adv-x="282" d="M83 0V700H199V0H83ZM64 745L179 873H309L180 745H64Z" />
<glyph unicode="&#xce;" horiz-adv-x="282" d="M83 0V700H199V0H83ZM215 760L79 889V895H200L323 760H215ZM-45 760L78 895H199V889L63 760H-45Z" />
<glyph unicode="&#xcf;" horiz-adv-x="292" d="M224 787Q200 787 182 805T163 847Q163 872 181 890T224 908Q249 908 267 890T285 847Q285 823 267 805T224 787ZM69 787Q44 787 26 805T8 847Q8 872 26 890T69 908Q94 908 112 890T130 847Q130 823 112 805T69 787ZM83
0V700H199V0H83Z" />
<glyph unicode="&#xd0;" horiz-adv-x="748" d="M63 306V393H388V306H63ZM355 0V108Q405 108 447 126T522 178T572 255T590 350Q590 401 573 445T523 522T448 573T355 592V700Q459 700 538 656T663 532T709 350Q709 248 664 169T539 45T355 0ZM210 0V108H355V0H210ZM136
0V700H252V0H136ZM210 592V700H355V592H210Z" />
<glyph unicode="&#xd1;" horiz-adv-x="774" d="M575 0L110 636L203 700L667 66L575 0ZM83 0V700H203L199 600V0H83ZM575 0V700H691V0H575ZM465 730Q434 730 415 741T385 766T364 791T339 802Q326 802 318 794T303 764H224Q228 799 242 825T280 865T337 879Q369
879 387 868T418 843T440 818T465 807Q481 807 488 817T498 846H577Q571 796 544 763T465 730Z" />
<glyph unicode="&#xd2;" horiz-adv-x="783" d="M394 -12Q290 -12 210 34T85 162T39 350Q39 456 84 537T209 665T391 712Q495 712 574 666T698 538T743 350Q743 244 699 162T576 34T394 -12ZM394 94Q462 94 514 127T595 217T625 350Q625 424 595 482T513 572T391
605Q323 605 271 573T188 483T157 350Q157 275 187 218T271 127T394 94ZM382 748L252 884H382L499 748H382Z" />
<glyph unicode="&#xd3;" horiz-adv-x="783" d="M394 -12Q290 -12 210 34T85 162T39 350Q39 456 84 537T209 665T391 712Q495 712 574 666T698 538T743 350Q743 244 699 162T576 34T394 -12ZM394 94Q462 94 514 127T595 217T625 350Q625 424 595 482T513 572T391
605Q323 605 271 573T188 483T157 350Q157 275 187 218T271 127T394 94ZM312 745L431 873H564L431 745H312Z" />
<glyph unicode="&#xd4;" horiz-adv-x="783" d="M394 -12Q290 -12 210 34T85 162T39 350Q39 456 84 537T209 665T391 712Q495 712 574 666T698 538T743 350Q743 244 699 162T576 34T394 -12ZM394 94Q462 94 514 127T595 217T625 350Q625 424 595 482T513 572T391
605Q323 605 271 573T188 483T157 350Q157 275 187 218T271 127T394 94ZM465 760L329 889V895H450L573 760H465ZM205 760L328 895H449V889L313 760H205Z" />
<glyph unicode="&#xd5;" horiz-adv-x="783" d="M394 -12Q290 -12 210 34T85 162T39 350Q39 456 84 537T209 665T391 712Q495 712 574 666T698 538T743 350Q743 244 699 162T576 34T394 -12ZM394 94Q462 94 514 127T595 217T625 350Q625 424 595 482T513 572T391
605Q323 605 271 573T188 483T157 350Q157 275 187 218T271 127T394 94ZM473 739Q442 739 423 750T393 775T372 800T347 811Q334 811 326 803T311 773H232Q236 808 250 834T288 874T345 888Q377 888 395 877T426 852T448 827T473 816Q489 816 496 826T506 855H585Q579
805 552 772T473 739Z" />
<glyph unicode="&#xd6;" horiz-adv-x="783" d="M394 -12Q290 -12 210 34T85 162T39 350Q39 456 84 537T209 665T391 712Q495 712 574 666T698 538T743 350Q743 244 699 162T576 34T394 -12ZM394 94Q462 94 514 127T595 217T625 350Q625 424 595 482T513 572T391
605Q323 605 271 573T188 483T157 350Q157 275 187 218T271 127T394 94ZM518 787Q494 787 476 805T458 847Q458 872 476 890T518 908Q543 908 561 890T579 847Q579 823 561 805T518 787ZM264 787Q240 787 222 805T204 847Q204 873 222 890T264 908Q289 908 307
891T325 847Q325 823 307 805T264 787Z" />
<glyph unicode="&#xd7;" horiz-adv-x="629" d="M452 96L112 435L176 500L516 160L452 96ZM176 96L112 160L451 500L516 435L176 96Z" />
<glyph unicode="&#xd8;" horiz-adv-x="787" d="M35 0L643 700H753L144 0H35ZM394 -12Q291 -12 211 34T86 162T40 350Q40 456 85 537T209 665T392 712Q496 712 575 666T699 538T744 350Q744 244 700 162T576 34T394 -12ZM395 94Q463 94 515 127T596 217T626 350Q626
424 596 482T514 572T392 605Q324 605 271 573T188 483T158 350Q158 275 188 218T272 127T395 94Z" />
<glyph unicode="&#xd9;" horiz-adv-x="705" d="M350 -14Q267 -14 205 19T108 114T73 256H189Q189 207 209 171T267 114T352 93Q401 93 438 113T496 170T516 256H632Q632 175 598 114T500 20T350 -14ZM73 256V700H189V256H73ZM516 256V700H632V256H516ZM343 748L213
884H343L460 748H343Z" />
<glyph unicode="&#xda;" horiz-adv-x="709" d="M350 -14Q267 -14 205 19T108 114T73 256H189Q189 207 209 171T267 114T352 93Q401 93 438 113T496 170T516 256H632Q632 175 598 114T500 20T350 -14ZM73 256V700H189V256H73ZM516 256V700H632V256H516ZM302 735L418
870H548L419 735H302Z" />
<glyph unicode="&#xdb;" horiz-adv-x="705" d="M350 -14Q267 -14 205 19T108 114T73 256H189Q189 207 209 171T267 114T352 93Q401 93 438 113T496 170T516 256H632Q632 175 598 114T500 20T350 -14ZM73 256V700H189V256H73ZM516 256V700H632V256H516ZM426 760L290
889V895H411L534 760H426ZM166 760L289 895H410V889L274 760H166Z" />
<glyph unicode="&#xdc;" horiz-adv-x="705" d="M350 -14Q267 -14 205 19T108 114T73 256H189Q189 207 209 171T267 114T352 93Q401 93 438 113T496 170T516 256H632Q632 175 598 114T500 20T350 -14ZM73 256V700H189V256H73ZM516 256V700H632V256H516ZM480 787Q456
787 438 805T420 847Q420 872 438 890T480 908Q505 908 523 890T541 847Q541 823 523 805T480 787ZM226 787Q202 787 184 805T166 847Q166 873 184 890T226 908Q251 908 269 891T287 847Q287 823 269 805T226 787Z" />
<glyph unicode="&#xdd;" horiz-adv-x="630" d="M370 290L263 324L489 700H622L370 290ZM257 0V336H373V0H257ZM260 290L8 700H141L367 324L260 290ZM237 735L353 870H483L354 735H237Z" />
<glyph unicode="&#xde;" horiz-adv-x="602" d="M194 130V237H348Q398 237 429 271T461 360Q461 396 445 424T399 467T332 483H194V588L336 589Q408 589 463 560T550 479T581 360Q581 293 552 241T471 160T352 130H194ZM87 1V701H205V1H87Z" />
<glyph unicode="&#xdf;" horiz-adv-x="578" d="M62 0V501Q62 568 91 615T172 687T292 712Q358 712 409 689T488 620T517 512Q517 470 502 435T460 372T393 330T305 315H265V409H273Q321 409 350 421T391 457T404 513Q404 559 372 586T291 614Q240 614 208 583T176
501V0H62ZM263 0V104H305Q361 104 393 130T425 199Q425 247 393 273T307 300H265V391H279Q365 391 422 369T509 303T539 191Q539 130 512 88T434 23T315 0H263Z" />
<glyph unicode="&#xe0;" horiz-adv-x="520" d="M365 0L360 94V257Q360 308 349 342T315 394T253 412Q218 412 191 397T146 351L44 387Q61 420 88 449T156 495T255 512Q328 512 376 485T449 405T473 274L470 0H365ZM223 -12Q133 -12 84 28T34 141Q34 219 86 260T233
301H367V215H269Q202 215 175 197T148 144Q148 115 171 99T237 82Q274 82 301 99T344 145T360 207H401Q401 105 358 47T223 -12ZM242 565L112 701H242L359 565H242Z" />
<glyph unicode="&#xe1;" horiz-adv-x="520" d="M365 0L360 94V257Q360 308 349 342T315 394T253 412Q218 412 191 397T146 351L44 387Q61 420 88 449T156 495T255 512Q328 512 376 485T449 405T473 274L470 0H365ZM223 -12Q133 -12 84 28T34 141Q34 219 86 260T233
301H367V215H269Q202 215 175 197T148 144Q148 115 171 99T237 82Q274 82 301 99T344 145T360 207H401Q401 105 358 47T223 -12ZM430 565L546 700H676L547 565H430Z" />
<glyph unicode="&#xe2;" horiz-adv-x="520" d="M365 0L360 94V257Q360 308 349 342T315 394T253 412Q218 412 191 397T146 351L44 387Q61 420 88 449T156 495T255 512Q328 512 376 485T449 405T473 274L470 0H365ZM223 -12Q133 -12 84 28T34 141Q34 219 86 260T233
301H367V215H269Q202 215 175 197T148 144Q148 115 171 99T237 82Q274 82 301 99T344 145T360 207H401Q401 105 358 47T223 -12ZM325 577L189 706V712H310L433 577H325ZM65 577L188 712H309V706L173 577H65Z" />
<glyph unicode="&#xe3;" horiz-adv-x="520" d="M365 0L360 94V257Q360 308 349 342T315 394T253 412Q218 412 191 397T146 351L44 387Q61 420 88 449T156 495T255 512Q328 512 376 485T449 405T473 274L470 0H365ZM223 -12Q133 -12 84 28T34 141Q34 219 86 260T233
301H367V215H269Q202 215 175 197T148 144Q148 115 171 99T237 82Q274 82 301 99T344 145T360 207H401Q401 105 358 47T223 -12ZM589 556Q558 556 539 567T509 592T488 617T463 628Q450 628 442 620T427 590H348Q352 625 366 651T404 691T461 705Q493 705 511 694T542
669T564 644T589 633Q605 633 612 643T622 672H701Q695 622 668 589T589 556Z" />
<glyph unicode="&#xe4;" horiz-adv-x="520" d="M365 0L360 94V257Q360 308 349 342T315 394T253 412Q218 412 191 397T146 351L44 387Q61 420 88 449T156 495T255 512Q328 512 376 485T449 405T473 274L470 0H365ZM223 -12Q133 -12 84 28T34 141Q34 219 86 260T233
301H367V215H269Q202 215 175 197T148 144Q148 115 171 99T237 82Q274 82 301 99T344 145T360 207H401Q401 105 358 47T223 -12ZM379 604Q355 604 337 622T319 664Q319 689 337 707T379 725Q404 725 422 707T440 664Q440 640 422 622T379 604ZM125 604Q101 604
83 622T65 664Q65 690 83 707T125 725Q150 725 168 708T186 664Q186 640 168 622T125 604Z" />
<glyph unicode="&#xe5;" horiz-adv-x="520" d="M365 0L360 94V257Q360 308 349 342T315 394T253 412Q218 412 191 397T146 351L44 387Q61 420 88 449T156 495T255 512Q328 512 376 485T449 405T473 274L470 0H365ZM223 -12Q133 -12 84 28T34 141Q34 219 86 260T233
301H367V215H269Q202 215 175 197T148 144Q148 115 171 99T237 82Q274 82 301 99T344 145T360 207H401Q401 105 358 47T223 -12ZM252 545Q223 545 198 559T158 596T143 649Q143 679 158 702T197 740T252 754Q282 754 306 740T346 703T361 649Q361 620 346 597T307
559T252 545ZM252 613Q287 613 287 649Q287 686 252 686Q216 686 216 649Q216 613 252 613Z" />
<glyph unicode="&#xe6;" horiz-adv-x="876" d="M367 171L360 258Q356 310 346 345T313 400T245 419Q208 419 182 404T137 358L38 393Q71 451 123 481T246 512Q347 512 399 450T452 274V171H367ZM220 -12Q132 -12 83 28T34 141Q34 217 83 256T220 296H390V220H254Q198
220 172 200T146 143Q146 110 170 92T236 74Q293 74 325 114T358 222L449 230Q449 118 389 53T220 -12ZM617 -12Q541 -12 483 21T391 114T357 250Q357 327 390 386T480 478T613 512Q687 512 740 478T822 380T852 227H741Q741 285 728 330T687 401T610 427Q566 427
535 405T487 342T470 246Q470 192 489 155T541 98T615 78Q662 78 695 101T745 160L842 121Q823 77 789 48T710 3T617 -12ZM430 227V305H792V227H430Z" />
<glyph unicode="&#xe7;" horiz-adv-x="544" d="M296 -12Q219 -12 160 21T68 114T34 250Q34 327 67 386T159 478T294 512Q368 512 428 477T517 375L413 335Q397 368 364 388T289 408Q248 408 216 388T166 332T148 250Q148 204 166 169T217 113T291 92Q333 92 366
113T415 172L519 132Q490 64 431 26T296 -12ZM513 -210Q492 -210 469 -204T418 -182L437 -125Q453 -132 468 -138T496 -144Q514 -144 527 -138T540 -113Q540 -91 523 -81T471 -66L500 6L568 -2L555 -30Q591 -43 607 -65T624 -115Q624 -157 597 -183T513 -210Z"
/>
<glyph unicode="&#xe8;" horiz-adv-x="553" d="M285 -12Q212 -12 156 21T67 114T34 250Q34 327 67 386T157 478T289 512Q356 512 409 478T495 378T527 223H414Q414 288 399 330T355 392T285 413Q242 413 211 394T164 339T148 247Q148 198 167 163T220 110T295
91Q340 91 369 111T414 164L517 120Q496 80 464 50T387 4T285 -12ZM108 223V312H468V223H108ZM280 565L150 701H280L397 565H280Z" />
<glyph unicode="&#xe9;" horiz-adv-x="553" d="M285 -12Q212 -12 156 21T67 114T34 250Q34 327 67 386T157 478T289 512Q356 512 409 478T495 378T527 223H414Q414 288 399 330T355 392T285 413Q242 413 211 394T164 339T148 247Q148 198 167 163T220 110T295
91Q340 91 369 111T414 164L517 120Q496 80 464 50T387 4T285 -12ZM108 223V312H468V223H108ZM468 565L584 700H714L585 565H468Z" />
<glyph unicode="&#xea;" horiz-adv-x="553" d="M285 -12Q212 -12 156 21T67 114T34 250Q34 327 67 386T157 478T289 512Q356 512 409 478T495 378T527 223H414Q414 288 399 330T355 392T285 413Q242 413 211 394T164 339T148 247Q148 198 167 163T220 110T295
91Q340 91 369 111T414 164L517 120Q496 80 464 50T387 4T285 -12ZM108 223V312H468V223H108ZM363 577L227 706V712H348L471 577H363ZM103 577L226 712H347V706L211 577H103Z" />
<glyph unicode="&#xeb;" horiz-adv-x="553" d="M285 -12Q212 -12 156 21T67 114T34 250Q34 327 67 386T157 478T289 512Q356 512 409 478T495 378T527 223H414Q414 288 399 330T355 392T285 413Q242 413 211 394T164 339T148 247Q148 198 167 163T220 110T295
91Q340 91 369 111T414 164L517 120Q496 80 464 50T387 4T285 -12ZM108 223V312H468V223H108ZM417 604Q393 604 375 622T357 664Q357 689 375 707T417 725Q442 725 460 707T478 664Q478 640 460 622T417 604ZM163 604Q139 604 121 622T103 664Q103 690 121 707T163
725Q188 725 206 708T224 664Q224 640 206 622T163 604Z" />
<glyph unicode="&#xec;" horiz-adv-x="250" d="M69 0L70 500H181L180 0H69ZM371 565L241 701H371L488 565H371Z" />
<glyph unicode="&#xed;" horiz-adv-x="250" d="M69 0L70 500H181L180 0H69ZM47 565L163 700H293L164 565H47Z" />
<glyph unicode="&#xee;" horiz-adv-x="250" d="M69 0L70 500H181L180 0H69ZM454 577L318 706V712H439L562 577H454ZM194 577L317 712H438V706L302 577H194Z" />
<glyph unicode="&#xef;" horiz-adv-x="250" d="M203 604Q179 604 161 622T142 664Q142 689 160 707T203 725Q228 725 245 707T263 664Q263 640 246 622T203 604ZM48 604Q23 604 5 622T-13 664Q-13 690 5 707T48 725Q73 725 90 708T108 664Q108 640 91 622T48 604ZM69
0L70 500H181L180 0H69Z" />
<glyph unicode="&#xf0;" horiz-adv-x="577" d="M284 -12Q211 -12 155 19T66 107T34 235Q34 308 64 363T148 451T272 483Q303 483 332 474T387 449T431 412T459 366L532 244Q532 169 501 112T413 21T284 -12ZM284 89Q324 89 354 108T401 159T418 235Q418 278 401
311T353 362T282 381Q243 381 213 363T166 311T148 235Q148 192 165 160T213 108T284 89ZM424 286Q425 359 411 416T365 517T278 590T143 638L164 734Q250 719 312 688T417 611T485 508T522 384T532 244L424 286ZM264 500L230 550L448 696L481 646L264 500Z" />
<glyph unicode="&#xf1;" horiz-adv-x="564" d="M62 0V500H167L174 408V0H62ZM401 0V256L513 286V0H401ZM401 256Q401 316 388 348T350 394T292 407Q236 408 205 370T174 261H132Q132 340 155 396T221 482T323 512Q414 512 463 457T513 286L401 256ZM361 556Q330
556 311 567T281 592T260 617T235 628Q222 628 214 620T199 590H120Q124 625 138 651T176 691T233 705Q265 705 283 694T314 669T336 644T361 633Q377 633 384 643T394 672H473Q467 622 440 589T361 556Z" />
<glyph unicode="&#xf2;" horiz-adv-x="581" d="M292 -12Q217 -12 159 21T67 114T34 250Q34 327 66 386T157 478T290 512Q365 512 423 479T513 386T546 250Q546 173 514 114T424 22T292 -12ZM292 91Q333 91 365 111T415 167T433 250Q433 297 415 332T364 388T290
409Q248 409 216 389T166 333T148 250Q148 203 166 168T217 112T292 91ZM278 565L148 701H278L395 565H278Z" />
<glyph unicode="&#xf3;" horiz-adv-x="581" d="M292 -12Q217 -12 159 21T67 114T34 250Q34 327 66 386T157 478T290 512Q365 512 423 479T513 386T546 250Q546 173 514 114T424 22T292 -12ZM292 91Q333 91 365 111T415 167T433 250Q433 297 415 332T364 388T290
409Q248 409 216 389T166 333T148 250Q148 203 166 168T217 112T292 91ZM466 565L582 700H712L583 565H466Z" />
<glyph unicode="&#xf4;" horiz-adv-x="581" d="M292 -12Q217 -12 159 21T67 114T34 250Q34 327 66 386T157 478T290 512Q365 512 423 479T513 386T546 250Q546 173 514 114T424 22T292 -12ZM292 91Q333 91 365 111T415 167T433 250Q433 297 415 332T364 388T290
409Q248 409 216 389T166 333T148 250Q148 203 166 168T217 112T292 91ZM361 577L225 706V712H346L469 577H361ZM101 577L224 712H345V706L209 577H101Z" />
<glyph unicode="&#xf5;" horiz-adv-x="581" d="M292 -12Q217 -12 159 21T67 114T34 250Q34 327 66 386T157 478T290 512Q365 512 423 479T513 386T546 250Q546 173 514 114T424 22T292 -12ZM292 91Q333 91 365 111T415 167T433 250Q433 297 415 332T364 388T290
409Q248 409 216 389T166 333T148 250Q148 203 166 168T217 112T292 91ZM369 556Q338 556 319 567T289 592T268 617T243 628Q230 628 222 620T207 590H128Q132 625 146 651T184 691T241 705Q273 705 291 694T322 669T344 644T369 633Q385 633 392 643T402 672H481Q475
622 448 589T369 556Z" />
<glyph unicode="&#xf6;" horiz-adv-x="581" d="M292 -12Q217 -12 159 21T67 114T34 250Q34 327 66 386T157 478T290 512Q365 512 423 479T513 386T546 250Q546 173 514 114T424 22T292 -12ZM292 91Q333 91 365 111T415 167T433 250Q433 297 415 332T364 388T290
409Q248 409 216 389T166 333T148 250Q148 203 166 168T217 112T292 91ZM415 604Q391 604 373 622T355 664Q355 689 373 707T415 725Q440 725 458 707T476 664Q476 640 458 622T415 604ZM161 604Q137 604 119 622T101 664Q101 690 119 707T161 725Q186 725 204
708T222 664Q222 640 204 622T161 604Z" />
<glyph unicode="&#xf7;" horiz-adv-x="629" d="M114 251V345H515V251H114ZM314 84Q293 84 277 100T261 138Q261 160 277 176T314 192Q336 192 352 176T368 138Q368 116 352 100T314 84ZM314 403Q293 403 277 419T260 457Q260 479 276 495T314 511Q336 511 352
495T368 457Q368 436 352 420T314 403Z" />
<glyph unicode="&#xf8;" horiz-adv-x="579" d="M21 0L457 500H557L120 0H21ZM289 -12Q214 -12 156 21T65 114T32 250Q32 327 64 386T154 478T287 512Q362 512 420 479T511 386T544 250Q544 173 512 114T422 22T289 -12ZM289 91Q331 91 362 111T412 167T430 250Q430
297 412 332T362 388T287 409Q246 409 214 389T164 333T145 250Q145 203 163 168T214 112T289 91Z" />
<glyph unicode="&#xf9;" horiz-adv-x="564" d="M397 0L391 92V500H502V0H397ZM51 214V500H163V244L51 214ZM163 244Q163 185 177 152T215 106T272 93Q329 92 360 130T391 239H433Q433 160 410 104T344 18T242 -12Q151 -12 101 44T51 214L163 244ZM271 565L141
701H271L388 565H271Z" />
<glyph unicode="&#xfa;" horiz-adv-x="564" d="M397 0L391 92V500H502V0H397ZM51 214V500H163V244L51 214ZM163 244Q163 185 177 152T215 106T272 93Q329 92 360 130T391 239H433Q433 160 410 104T344 18T242 -12Q151 -12 101 44T51 214L163 244ZM459 565L575
700H705L576 565H459Z" />
<glyph unicode="&#xfb;" horiz-adv-x="564" d="M397 0L391 92V500H502V0H397ZM51 214V500H163V244L51 214ZM163 244Q163 185 177 152T215 106T272 93Q329 92 360 130T391 239H433Q433 160 410 104T344 18T242 -12Q151 -12 101 44T51 214L163 244ZM354 577L218
706V712H339L462 577H354ZM94 577L217 712H338V706L202 577H94Z" />
<glyph unicode="&#xfc;" horiz-adv-x="564" d="M397 0L391 92V500H502V0H397ZM51 214V500H163V244L51 214ZM163 244Q163 185 177 152T215 106T272 93Q329 92 360 130T391 239H433Q433 160 410 104T344 18T242 -12Q151 -12 101 44T51 214L163 244ZM408 604Q384
604 366 622T348 664Q348 689 366 707T408 725Q433 725 451 707T469 664Q469 640 451 622T408 604ZM154 604Q130 604 112 622T94 664Q94 690 112 707T154 725Q179 725 197 708T215 664Q215 640 197 622T154 604Z" />
<glyph unicode="&#xfd;" horiz-adv-x="556" d="M141 -212Q117 -212 88 -203T31 -180L73 -89Q92 -98 108 -103T134 -109Q158 -109 174 -97T201 -60L260 78L429 500H551L319 -53Q298 -101 277 -137T223 -192T141 -212ZM230 0L6 500H128L302 79L338 0H230ZM456 565L572
700H702L573 565H456Z" />
<glyph unicode="&#xfe;" horiz-adv-x="592" d="M62 -200V700H174V-200H62ZM332 -12Q269 -12 224 20T154 112T130 250Q130 330 154 388T223 479T332 512Q400 512 450 480T529 389T558 250Q558 171 530 112T451 21T332 -12ZM304 90Q344 90 375 110T424 167T443 250Q443
297 426 333T377 389T305 409Q267 409 237 389T191 333T174 250Q174 203 190 167T236 111T304 90Z" />
<glyph unicode="&#xff;" horiz-adv-x="556" d="M141 -212Q117 -212 88 -203T31 -180L73 -89Q92 -98 108 -103T134 -109Q158 -109 174 -97T201 -60L260 78L429 500H551L319 -53Q298 -101 277 -137T223 -192T141 -212ZM230 0L6 500H128L302 79L338 0H230ZM405 604Q381
604 363 622T345 664Q345 689 363 707T405 725Q430 725 448 707T466 664Q466 640 448 622T405 604ZM151 604Q127 604 109 622T91 664Q91 690 109 707T151 725Q176 725 194 708T212 664Q212 640 194 622T151 604Z" />
<glyph unicode="&#x2013;" horiz-adv-x="550" d="M0 249V346H550V249H0Z" />
<glyph unicode="&#x2014;" horiz-adv-x="1100" d="M0 249V346H1100V249H0Z" />
<glyph unicode="&#x2018;" horiz-adv-x="204" d="M189 700L129 473H11L101 700H189Z" />
<glyph unicode="&#x2019;" horiz-adv-x="204" d="M14 473L74 700H192L102 473H14Z" />
<glyph unicode="&#x201a;" horiz-adv-x="235" d="M33 -115L93 112H211L121 -115H33Z" />
<glyph unicode="&#x201c;" horiz-adv-x="381" d="M189 701L129 475H11L101 701H189ZM366 701L307 475H189L279 701H366Z" />
<glyph unicode="&#x201d;" horiz-adv-x="381" d="M192 473L252 700H370L280 473H192ZM14 473L74 700H192L102 473H14Z" />
<glyph unicode="&#x201e;" horiz-adv-x="370" d="M188 -115L248 112H366L276 -115H188ZM267 -115L327 112H445L355 -115H267Z" />
<glyph unicode="&#x2022;" horiz-adv-x="476" d="M238 171Q206 171 181 186T140 227T124 285Q124 316 139 341T180 382T238 397Q269 397 295 382T336 342T352 285Q352 253 337 228T295 187T238 171Z" />
<glyph unicode="&#x2039;" horiz-adv-x="384" d="M48 298L198 500H328L181 298H48ZM198 96L48 298H181L328 96H198Z" />
<glyph unicode="&#x203a;" horiz-adv-x="384" d="M336 298H202L56 500H185L336 298ZM185 96H56L202 298H336L185 96Z" />
</font>
</defs>
</svg>
