<svg width="164" height="40" viewBox="0 0 164 40" fill="none" xmlns="http://www.w3.org/2000/svg">
  <g clip-path="url(#clip0_8_97)">
    <path d="M40 20C40 8.9543 31.0457 0 20 0C8.9543 0 0 8.9543 0 20C0 31.0457 8.9543 40 20 40C31.0457 40 40 31.0457 40 20Z" fill="#0284C7"/>
    <path d="M11.6665 10.7391H15.5836L15.8908 12.5799C16.5309 11.9287 17.2861 11.4153 18.1565 11.0396C19.0526 10.6639 20.0127 10.4761 21.0367 10.4761C22.5472 10.4761 23.8401 10.7892 24.9154 11.4153C26.0163 12.0164 26.8611 12.9181 27.4499 14.1203C28.0388 15.2975 28.3332 16.7752 28.3332 18.5535V29.5237H23.9937V19.117C23.9937 17.5391 23.6609 16.3494 22.9953 15.5479C22.3552 14.7464 21.3824 14.3457 20.0767 14.3457C18.7454 14.3457 17.7341 14.759 17.0429 15.5855C16.3516 16.387 16.006 17.5767 16.006 19.1546V29.5237H11.6665V10.7391Z" fill="white"/>
    <path d="M50 12.0401H53.672L53.96 13.8041C54.56 13.1801 55.268 12.6881 56.084 12.3281C56.924 11.9681 57.824 11.7881 58.784 11.7881C60.2 11.7881 61.412 12.0881 62.42 12.6881C63.452 13.2641 64.244 14.1281 64.796 15.2801C65.348 16.4081 65.624 17.8241 65.624 19.5281V30.0401H61.556V20.0681C61.556 18.5561 61.244 17.4161 60.62 16.6481C60.02 15.8801 59.108 15.4961 57.884 15.4961C56.636 15.4961 55.688 15.8921 55.04 16.6841C54.392 17.4521 54.068 18.5921 54.068 20.1041V30.0401H50V12.0401Z" fill="#004A75"/>
    <path d="M79.0373 30.0401L78.6773 27.8441C78.1013 28.6121 77.4173 29.2001 76.6253 29.6081C75.8333 30.0161 74.7773 30.2201 73.4573 30.2201C72.2093 30.2201 71.1293 30.0161 70.2173 29.6081C69.3053 29.1761 68.5973 28.5881 68.0933 27.8441C67.6133 27.0761 67.3733 26.1881 67.3733 25.1801C67.3733 23.6681 67.9253 22.4081 69.0293 21.4001C70.1573 20.3681 71.8013 19.7321 73.9613 19.4921L78.6773 18.9881V17.5841C78.6773 17.0081 78.4253 16.4921 77.9213 16.0361C77.4173 15.5561 76.6133 15.3161 75.5093 15.3161C74.5493 15.3161 73.7093 15.5561 72.9893 16.0361C72.2933 16.4921 71.8253 17.1881 71.5853 18.1241L68.0573 16.8281C68.5133 15.2441 69.4133 14.0081 70.7573 13.1201C72.1253 12.2321 73.7813 11.7881 75.7253 11.7881C78.0773 11.7881 79.8413 12.3761 81.0173 13.5521C82.1933 14.7281 82.7813 16.2281 82.7813 18.0521V30.0401H79.0373ZM78.6773 22.1201L74.3573 22.6601C73.4453 22.7801 72.7613 23.0441 72.3053 23.4521C71.8493 23.8361 71.6213 24.3281 71.6213 24.9281C71.6213 25.4801 71.8373 25.9601 72.2693 26.3681C72.7253 26.7521 73.3373 26.9441 74.1053 26.9441C75.0893 26.9441 75.9173 26.7641 76.5893 26.4041C77.2853 26.0441 77.8013 25.5281 78.1373 24.8561C78.4973 24.1841 78.6773 23.3561 78.6773 22.3721V22.1201Z" fill="#004A75"/>
    <path d="M86.6457 12.04V7H90.7857V12.04H94.9977V15.604H90.7857V23.596C90.7857 24.676 90.9897 25.432 91.3977 25.864C91.8057 26.272 92.3337 26.5 92.9817 26.548C93.6537 26.572 94.3257 26.536 94.9977 26.44V29.896C93.9657 30.112 92.9457 30.172 91.9377 30.076C90.9537 30.004 90.0657 29.74 89.2737 29.284C88.4817 28.804 87.8457 28.108 87.3657 27.196C86.8857 26.284 86.6457 25.084 86.6457 23.596V15.604H84.1257V12.04H86.6457Z" fill="#004A75"/>
    <path d="M107.43 30.0401L107.07 27.8441C106.494 28.6121 105.81 29.2001 105.018 29.6081C104.226 30.0161 103.17 30.2201 101.85 30.2201C100.602 30.2201 99.5216 30.0161 98.6096 29.6081C97.6976 29.1761 96.9896 28.5881 96.4856 27.8441C96.0056 27.0761 95.7656 26.1881 95.7656 25.1801C95.7656 23.6681 96.3176 22.4081 97.4216 21.4001C98.5496 20.3681 100.194 19.7321 102.354 19.4921L107.07 18.9881V17.5841C107.07 17.0081 106.818 16.4921 106.314 16.0361C105.81 15.5561 105.006 15.3161 103.902 15.3161C102.942 15.3161 102.102 15.5561 101.382 16.0361C100.686 16.4921 100.218 17.1881 99.9776 18.1241L96.4496 16.8281C96.9056 15.2441 97.8056 14.0081 99.1496 13.1201C100.518 12.2321 102.174 11.7881 104.118 11.7881C106.47 11.7881 108.234 12.3761 109.41 13.5521C110.586 14.7281 111.174 16.2281 111.174 18.0521V30.0401H107.43ZM107.07 22.1201L102.75 22.6601C101.838 22.7801 101.154 23.0441 100.698 23.4521C100.242 23.8361 100.014 24.3281 100.014 24.9281C100.014 25.4801 100.23 25.9601 100.662 26.3681C101.118 26.7521 101.73 26.9441 102.498 26.9441C103.482 26.9441 104.31 26.7641 104.982 26.4041C105.678 26.0441 106.194 25.5281 106.53 24.8561C106.89 24.1841 107.07 23.3561 107.07 22.3721V22.1201Z" fill="#004A75"/>
    <path d="M113.886 12.0401H117.558L117.846 13.8041C118.446 13.1801 119.154 12.6881 119.97 12.3281C120.81 11.9681 121.71 11.7881 122.67 11.7881C124.086 11.7881 125.298 12.0881 126.306 12.6881C127.338 13.2641 128.13 14.1281 128.682 15.2801C129.234 16.4081 129.51 17.8241 129.51 19.5281V30.0401H125.442V20.0681C125.442 18.5561 125.13 17.4161 124.506 16.6481C123.906 15.8801 122.994 15.4961 121.77 15.4961C120.522 15.4961 119.574 15.8921 118.926 16.6841C118.278 17.4521 117.954 18.5921 117.954 20.1041V30.0401H113.886V12.0401Z" fill="#004A75"/>
    <path d="M143.945 12.04H148.229L137.645 37.2401H133.613L136.853 29.5361L129.833 12.04H134.333L139.085 24.7841L143.945 12.04Z" fill="#004A75"/>
    <path d="M159.791 30.0401L159.431 27.8441C158.855 28.6121 158.171 29.2001 157.379 29.6081C156.587 30.0161 155.531 30.2201 154.211 30.2201C152.963 30.2201 151.883 30.0161 150.971 29.6081C150.059 29.1761 149.351 28.5881 148.847 27.8441C148.367 27.0761 148.127 26.1881 148.127 25.1801C148.127 23.6681 148.679 22.4081 149.783 21.4001C150.911 20.3681 152.555 19.7321 154.715 19.4921L159.431 18.9881V17.5841C159.431 17.0081 159.179 16.4921 158.675 16.0361C158.171 15.5561 157.367 15.3161 156.263 15.3161C155.303 15.3161 154.463 15.5561 153.743 16.0361C153.047 16.4921 152.579 17.1881 152.339 18.1241L148.811 16.8281C149.267 15.2441 150.167 14.0081 151.511 13.1201C152.879 12.2321 154.535 11.7881 156.479 11.7881C158.831 11.7881 160.595 12.3761 161.771 13.5521C162.947 14.7281 163.535 16.2281 163.535 18.0521V30.0401H159.791ZM159.431 22.1201L155.111 22.6601C154.199 22.7801 153.515 23.0441 153.059 23.4521C152.603 23.8361 152.375 24.3281 152.375 24.9281C152.375 25.4801 152.591 25.9601 153.023 26.3681C153.479 26.7521 154.091 26.9441 154.859 26.9441C155.843 26.9441 156.671 26.7641 157.343 26.4041C158.039 26.0441 158.555 25.5281 158.891 24.8561C159.251 24.1841 159.431 23.3561 159.431 22.3721V22.1201Z" fill="#004A75"/>
  </g>
  <defs>
    <clipPath id="clip0_8_97">
      <rect width="164" height="40" fill="white"/>
    </clipPath>
  </defs>
</svg>